<svg width="205" height="50" viewBox="0 0 205 50" fill="none" xmlns="http://www.w3.org/2000/svg">
<rect x="40" y="0.655731" width="39.3443" height="16.2963" rx="5" transform="rotate(90 40 0.655731)" fill="#70D6FF"/>
<rect x="19.2593" width="17.7049" height="19.2593" rx="8.85246" transform="rotate(90 19.2593 0)" fill="#FF70A6"/>
<rect x="19.2593" y="23.6066" width="16.3934" height="17.7778" rx="5" transform="rotate(90 19.2593 23.6066)" fill="#F9CE53"/>
<path d="M59.6821 18.65C59.2854 18.3233 58.7137 18.0083 57.9671 17.705C57.2204 17.4017 56.4037 17.25 55.5171 17.25C54.5837 17.25 53.7787 17.425 53.1021 17.775C52.4487 18.1017 51.9121 18.5683 51.4921 19.175C51.0721 19.7583 50.7687 20.4583 50.5821 21.275C50.3954 22.0917 50.3021 22.9667 50.3021 23.9C50.3021 26.0233 50.8271 27.6683 51.8771 28.835C52.9271 29.9783 54.3271 30.55 56.0771 30.55C56.9637 30.55 57.6987 30.515 58.2821 30.445C58.8887 30.3517 59.3554 30.2583 59.6821 30.165V18.65ZM59.6821 6.4L62.9371 5.84V32.475C62.1904 32.685 61.2337 32.895 60.0671 33.105C58.9004 33.315 57.5587 33.42 56.0421 33.42C54.6421 33.42 53.3821 33.1983 52.2621 32.755C51.1421 32.3117 50.1854 31.6817 49.3921 30.865C48.5987 30.0483 47.9804 29.0567 47.5371 27.89C47.1171 26.7 46.9071 25.37 46.9071 23.9C46.9071 22.5 47.0821 21.2167 47.4321 20.05C47.8054 18.8833 48.3421 17.88 49.0421 17.04C49.7421 16.2 50.5937 15.5467 51.5971 15.08C52.6237 14.6133 53.7904 14.38 55.0971 14.38C56.1471 14.38 57.0687 14.52 57.8621 14.8C58.6787 15.08 59.2854 15.3483 59.6821 15.605V6.4ZM74.6924 30.655C75.4624 30.655 76.1391 30.6433 76.7224 30.62C77.3291 30.5733 77.8308 30.5033 78.2274 30.41V24.985C77.9941 24.8683 77.6091 24.775 77.0724 24.705C76.5591 24.6117 75.9291 24.565 75.1824 24.565C74.6924 24.565 74.1674 24.6 73.6074 24.67C73.0708 24.74 72.5691 24.8917 72.1024 25.125C71.6591 25.335 71.2858 25.6383 70.9824 26.035C70.6791 26.4083 70.5274 26.91 70.5274 27.54C70.5274 28.7067 70.9008 29.5233 71.6474 29.99C72.3941 30.4333 73.4091 30.655 74.6924 30.655ZM74.4124 14.345C75.7191 14.345 76.8158 14.52 77.7024 14.87C78.6124 15.1967 79.3358 15.675 79.8724 16.305C80.4324 16.9117 80.8291 17.6467 81.0624 18.51C81.2958 19.35 81.4124 20.2833 81.4124 21.31V32.685C81.1324 32.7317 80.7358 32.8017 80.2224 32.895C79.7324 32.965 79.1724 33.035 78.5424 33.105C77.9124 33.175 77.2241 33.2333 76.4774 33.28C75.7541 33.35 75.0308 33.385 74.3074 33.385C73.2808 33.385 72.3358 33.28 71.4724 33.07C70.6091 32.86 69.8624 32.5333 69.2324 32.09C68.6024 31.6233 68.1124 31.0167 67.7624 30.27C67.4124 29.5233 67.2374 28.625 67.2374 27.575C67.2374 26.5717 67.4358 25.7083 67.8324 24.985C68.2524 24.2617 68.8124 23.6783 69.5124 23.235C70.2124 22.7917 71.0291 22.465 71.9624 22.255C72.8958 22.045 73.8758 21.94 74.9024 21.94C75.2291 21.94 75.5674 21.9633 75.9174 22.01C76.2674 22.0333 76.5941 22.08 76.8974 22.15C77.2241 22.1967 77.5041 22.2433 77.7374 22.29C77.9708 22.3367 78.1341 22.3717 78.2274 22.395V21.485C78.2274 20.9483 78.1691 20.4233 78.0524 19.91C77.9358 19.3733 77.7258 18.9067 77.4224 18.51C77.1191 18.09 76.6991 17.7633 76.1624 17.53C75.6491 17.2733 74.9724 17.145 74.1324 17.145C73.0591 17.145 72.1141 17.2267 71.2974 17.39C70.5041 17.53 69.9091 17.6817 69.5124 17.845L69.1274 15.15C69.5474 14.9633 70.2474 14.7883 71.2274 14.625C72.2074 14.4383 73.2691 14.345 74.4124 14.345ZM91.0536 30.655C92.3836 30.655 93.3636 30.48 93.9936 30.13C94.6469 29.78 94.9736 29.22 94.9736 28.45C94.9736 27.6567 94.6586 27.0267 94.0286 26.56C93.3986 26.0933 92.3602 25.5683 90.9136 24.985C90.2136 24.705 89.5369 24.425 88.8836 24.145C88.2536 23.8417 87.7052 23.4917 87.2386 23.095C86.7719 22.6983 86.3986 22.22 86.1186 21.66C85.8386 21.1 85.6986 20.4117 85.6986 19.595C85.6986 17.985 86.2936 16.7133 87.4836 15.78C88.6736 14.8233 90.2952 14.345 92.3486 14.345C92.8619 14.345 93.3752 14.38 93.8886 14.45C94.4019 14.4967 94.8802 14.5667 95.3236 14.66C95.7669 14.73 96.1519 14.8117 96.4786 14.905C96.8286 14.9983 97.0969 15.08 97.2836 15.15L96.6886 17.95C96.3386 17.7633 95.7902 17.5767 95.0436 17.39C94.2969 17.18 93.3986 17.075 92.3486 17.075C91.4386 17.075 90.6452 17.2617 89.9686 17.635C89.2919 17.985 88.9536 18.545 88.9536 19.315C88.9536 19.7117 89.0236 20.0617 89.1636 20.365C89.3269 20.6683 89.5602 20.9483 89.8636 21.205C90.1902 21.4383 90.5869 21.66 91.0536 21.87C91.5202 22.08 92.0802 22.3017 92.7336 22.535C93.5969 22.8617 94.3669 23.1883 95.0436 23.515C95.7202 23.8183 96.2919 24.18 96.7586 24.6C97.2486 25.02 97.6219 25.5333 97.8786 26.14C98.1352 26.7233 98.2636 27.4467 98.2636 28.31C98.2636 29.99 97.6336 31.2617 96.3736 32.125C95.1369 32.9883 93.3636 33.42 91.0536 33.42C89.4436 33.42 88.1836 33.28 87.2736 33C86.3636 32.7433 85.7452 32.545 85.4186 32.405L86.0136 29.605C86.3869 29.745 86.9819 29.955 87.7986 30.235C88.6152 30.515 89.7002 30.655 91.0536 30.655ZM102.439 33V6.4L105.694 5.84V15.15C106.3 14.9167 106.942 14.7417 107.619 14.625C108.319 14.485 109.007 14.415 109.684 14.415C111.13 14.415 112.332 14.625 113.289 15.045C114.245 15.4417 115.004 16.0133 115.564 16.76C116.147 17.4833 116.555 18.3583 116.789 19.385C117.022 20.4117 117.139 21.5433 117.139 22.78V33H113.884V23.48C113.884 22.36 113.802 21.4033 113.639 20.61C113.499 19.8167 113.254 19.175 112.904 18.685C112.554 18.195 112.087 17.845 111.504 17.635C110.92 17.4017 110.197 17.285 109.334 17.285C108.984 17.285 108.622 17.3083 108.249 17.355C107.875 17.4017 107.514 17.46 107.164 17.53C106.837 17.5767 106.534 17.635 106.254 17.705C105.997 17.775 105.81 17.8333 105.694 17.88V33H102.439ZM130.344 33.42C128.874 33.42 127.579 33.1867 126.459 32.72C125.362 32.2533 124.429 31.6 123.659 30.76C122.912 29.92 122.352 28.9283 121.979 27.785C121.605 26.6183 121.419 25.335 121.419 23.935C121.419 22.535 121.617 21.2517 122.014 20.085C122.434 18.9183 123.017 17.915 123.764 17.075C124.51 16.2117 125.42 15.5467 126.494 15.08C127.59 14.59 128.804 14.345 130.134 14.345C130.95 14.345 131.767 14.415 132.584 14.555C133.4 14.695 134.182 14.9167 134.929 15.22L134.194 17.985C133.704 17.7517 133.132 17.565 132.479 17.425C131.849 17.285 131.172 17.215 130.449 17.215C128.629 17.215 127.229 17.7867 126.249 18.93C125.292 20.0733 124.814 21.7417 124.814 23.935C124.814 24.915 124.919 25.8133 125.129 26.63C125.362 27.4467 125.712 28.1467 126.179 28.73C126.669 29.3133 127.287 29.7683 128.034 30.095C128.78 30.3983 129.69 30.55 130.764 30.55C131.627 30.55 132.409 30.4683 133.109 30.305C133.809 30.1417 134.357 29.9667 134.754 29.78L135.209 32.51C135.022 32.6267 134.754 32.7433 134.404 32.86C134.054 32.9533 133.657 33.035 133.214 33.105C132.77 33.1983 132.292 33.2683 131.779 33.315C131.289 33.385 130.81 33.42 130.344 33.42ZM154.324 23.9C154.324 25.3467 154.114 26.6533 153.694 27.82C153.274 28.9867 152.679 29.99 151.909 30.83C151.162 31.67 150.264 32.3233 149.214 32.79C148.164 33.2333 147.021 33.455 145.784 33.455C144.547 33.455 143.404 33.2333 142.354 32.79C141.304 32.3233 140.394 31.67 139.624 30.83C138.877 29.99 138.294 28.9867 137.874 27.82C137.454 26.6533 137.244 25.3467 137.244 23.9C137.244 22.4767 137.454 21.1817 137.874 20.015C138.294 18.825 138.877 17.81 139.624 16.97C140.394 16.13 141.304 15.4883 142.354 15.045C143.404 14.5783 144.547 14.345 145.784 14.345C147.021 14.345 148.164 14.5783 149.214 15.045C150.264 15.4883 151.162 16.13 151.909 16.97C152.679 17.81 153.274 18.825 153.694 20.015C154.114 21.1817 154.324 22.4767 154.324 23.9ZM150.929 23.9C150.929 21.8467 150.462 20.225 149.529 19.035C148.619 17.8217 147.371 17.215 145.784 17.215C144.197 17.215 142.937 17.8217 142.004 19.035C141.094 20.225 140.639 21.8467 140.639 23.9C140.639 25.9533 141.094 27.5867 142.004 28.8C142.937 29.99 144.197 30.585 145.784 30.585C147.371 30.585 148.619 29.99 149.529 28.8C150.462 27.5867 150.929 25.9533 150.929 23.9ZM170.664 18.65C170.267 18.3233 169.695 18.0083 168.949 17.705C168.202 17.4017 167.385 17.25 166.499 17.25C165.565 17.25 164.76 17.425 164.084 17.775C163.43 18.1017 162.894 18.5683 162.474 19.175C162.054 19.7583 161.75 20.4583 161.564 21.275C161.377 22.0917 161.284 22.9667 161.284 23.9C161.284 26.0233 161.809 27.6683 162.859 28.835C163.909 29.9783 165.309 30.55 167.059 30.55C167.945 30.55 168.68 30.515 169.264 30.445C169.87 30.3517 170.337 30.2583 170.664 30.165V18.65ZM170.664 6.4L173.919 5.84V32.475C173.172 32.685 172.215 32.895 171.049 33.105C169.882 33.315 168.54 33.42 167.024 33.42C165.624 33.42 164.364 33.1983 163.244 32.755C162.124 32.3117 161.167 31.6817 160.374 30.865C159.58 30.0483 158.962 29.0567 158.519 27.89C158.099 26.7 157.889 25.37 157.889 23.9C157.889 22.5 158.064 21.2167 158.414 20.05C158.787 18.8833 159.324 17.88 160.024 17.04C160.724 16.2 161.575 15.5467 162.579 15.08C163.605 14.6133 164.772 14.38 166.079 14.38C167.129 14.38 168.05 14.52 168.844 14.8C169.66 15.08 170.267 15.3483 170.664 15.605V6.4ZM178.499 23.935C178.499 22.325 178.732 20.925 179.199 19.735C179.666 18.5217 180.284 17.5183 181.054 16.725C181.824 15.9317 182.711 15.3367 183.714 14.94C184.717 14.5433 185.744 14.345 186.794 14.345C189.244 14.345 191.122 15.115 192.429 16.655C193.736 18.1717 194.389 20.4933 194.389 23.62C194.389 23.76 194.389 23.9467 194.389 24.18C194.389 24.39 194.377 24.5883 194.354 24.775H181.894C182.034 26.665 182.582 28.1 183.539 29.08C184.496 30.06 185.989 30.55 188.019 30.55C189.162 30.55 190.119 30.4567 190.889 30.27C191.682 30.06 192.277 29.8617 192.674 29.675L193.129 32.405C192.732 32.615 192.032 32.8367 191.029 33.07C190.049 33.3033 188.929 33.42 187.669 33.42C186.082 33.42 184.706 33.1867 183.539 32.72C182.396 32.23 181.451 31.565 180.704 30.725C179.957 29.885 179.397 28.8933 179.024 27.75C178.674 26.5833 178.499 25.3117 178.499 23.935ZM190.994 22.15C191.017 20.68 190.644 19.4783 189.874 18.545C189.127 17.5883 188.089 17.11 186.759 17.11C186.012 17.11 185.347 17.2617 184.764 17.565C184.204 17.845 183.726 18.2183 183.329 18.685C182.932 19.1517 182.617 19.6883 182.384 20.295C182.174 20.9017 182.034 21.52 181.964 22.15H190.994Z" fill="#EBEBEB"/>
<path d="M202.915 31.11C202.915 31.74 202.705 32.2883 202.285 32.755C201.865 33.2217 201.293 33.455 200.57 33.455C199.846 33.455 199.275 33.2217 198.855 32.755C198.435 32.2883 198.225 31.74 198.225 31.11C198.225 30.48 198.435 29.9317 198.855 29.465C199.275 28.9983 199.846 28.765 200.57 28.765C201.293 28.765 201.865 28.9983 202.285 29.465C202.705 29.9317 202.915 30.48 202.915 31.11Z" fill="#70D6FF"/>
<path d="M139.846 39.2H142.801V40.37H139.846V43.97C139.846 44.36 139.876 44.685 139.936 44.945C139.996 45.195 140.086 45.395 140.206 45.545C140.326 45.685 140.476 45.785 140.656 45.845C140.836 45.905 141.046 45.935 141.286 45.935C141.706 45.935 142.041 45.89 142.291 45.8C142.551 45.7 142.731 45.63 142.831 45.59L143.101 46.745C142.961 46.815 142.716 46.9 142.366 47C142.016 47.11 141.616 47.165 141.166 47.165C140.636 47.165 140.196 47.1 139.846 46.97C139.506 46.83 139.231 46.625 139.021 46.355C138.811 46.085 138.661 45.755 138.571 45.365C138.491 44.965 138.451 44.505 138.451 43.985V37.025L139.846 36.785V39.2ZM147.216 45.995C147.546 45.995 147.836 45.99 148.086 45.98C148.346 45.96 148.561 45.93 148.731 45.89V43.565C148.631 43.515 148.466 43.475 148.236 43.445C148.016 43.405 147.746 43.385 147.426 43.385C147.216 43.385 146.991 43.4 146.751 43.43C146.521 43.46 146.306 43.525 146.106 43.625C145.916 43.715 145.756 43.845 145.626 44.015C145.496 44.175 145.431 44.39 145.431 44.66C145.431 45.16 145.591 45.51 145.911 45.71C146.231 45.9 146.666 45.995 147.216 45.995ZM147.096 39.005C147.656 39.005 148.126 39.08 148.506 39.23C148.896 39.37 149.206 39.575 149.436 39.845C149.676 40.105 149.846 40.42 149.946 40.79C150.046 41.15 150.096 41.55 150.096 41.99V46.865C149.976 46.885 149.806 46.915 149.586 46.955C149.376 46.985 149.136 47.015 148.866 47.045C148.596 47.075 148.301 47.1 147.981 47.12C147.671 47.15 147.361 47.165 147.051 47.165C146.611 47.165 146.206 47.12 145.836 47.03C145.466 46.94 145.146 46.8 144.876 46.61C144.606 46.41 144.396 46.15 144.246 45.83C144.096 45.51 144.021 45.125 144.021 44.675C144.021 44.245 144.106 43.875 144.276 43.565C144.456 43.255 144.696 43.005 144.996 42.815C145.296 42.625 145.646 42.485 146.046 42.395C146.446 42.305 146.866 42.26 147.306 42.26C147.446 42.26 147.591 42.27 147.741 42.29C147.891 42.3 148.031 42.32 148.161 42.35C148.301 42.37 148.421 42.39 148.521 42.41C148.621 42.43 148.691 42.445 148.731 42.455V42.065C148.731 41.835 148.706 41.61 148.656 41.39C148.606 41.16 148.516 40.96 148.386 40.79C148.256 40.61 148.076 40.47 147.846 40.37C147.626 40.26 147.336 40.205 146.976 40.205C146.516 40.205 146.111 40.24 145.761 40.31C145.421 40.37 145.166 40.435 144.996 40.505L144.831 39.35C145.011 39.27 145.311 39.195 145.731 39.125C146.151 39.045 146.606 39.005 147.096 39.005ZM154.228 45.995C154.798 45.995 155.218 45.92 155.488 45.77C155.768 45.62 155.908 45.38 155.908 45.05C155.908 44.71 155.773 44.44 155.503 44.24C155.233 44.04 154.788 43.815 154.168 43.565C153.868 43.445 153.578 43.325 153.298 43.205C153.028 43.075 152.793 42.925 152.593 42.755C152.393 42.585 152.233 42.38 152.113 42.14C151.993 41.9 151.933 41.605 151.933 41.255C151.933 40.565 152.188 40.02 152.698 39.62C153.208 39.21 153.903 39.005 154.783 39.005C155.003 39.005 155.223 39.02 155.443 39.05C155.663 39.07 155.868 39.1 156.058 39.14C156.248 39.17 156.413 39.205 156.553 39.245C156.703 39.285 156.818 39.32 156.898 39.35L156.643 40.55C156.493 40.47 156.258 40.39 155.938 40.31C155.618 40.22 155.233 40.175 154.783 40.175C154.393 40.175 154.053 40.255 153.763 40.415C153.473 40.565 153.328 40.805 153.328 41.135C153.328 41.305 153.358 41.455 153.418 41.585C153.488 41.715 153.588 41.835 153.718 41.945C153.858 42.045 154.028 42.14 154.228 42.23C154.428 42.32 154.668 42.415 154.948 42.515C155.318 42.655 155.648 42.795 155.938 42.935C156.228 43.065 156.473 43.22 156.673 43.4C156.883 43.58 157.043 43.8 157.153 44.06C157.263 44.31 157.318 44.62 157.318 44.99C157.318 45.71 157.048 46.255 156.508 46.625C155.978 46.995 155.218 47.18 154.228 47.18C153.538 47.18 152.998 47.12 152.608 47C152.218 46.89 151.953 46.805 151.813 46.745L152.068 45.545C152.228 45.605 152.483 45.695 152.833 45.815C153.183 45.935 153.648 45.995 154.228 45.995ZM161.928 42.71C162.228 42.94 162.543 43.225 162.873 43.565C163.213 43.905 163.543 44.275 163.863 44.675C164.193 45.065 164.503 45.465 164.793 45.875C165.083 46.275 165.328 46.65 165.528 47H163.893C163.683 46.65 163.438 46.295 163.158 45.935C162.888 45.565 162.603 45.215 162.303 44.885C162.003 44.545 161.698 44.235 161.388 43.955C161.078 43.675 160.783 43.44 160.503 43.25V47H159.108V35.6L160.503 35.36V42.47C160.743 42.23 161.008 41.965 161.298 41.675C161.588 41.385 161.873 41.09 162.153 40.79C162.433 40.49 162.698 40.205 162.948 39.935C163.198 39.655 163.413 39.41 163.593 39.2H165.228C164.998 39.45 164.748 39.725 164.478 40.025C164.208 40.325 163.928 40.63 163.638 40.94C163.348 41.24 163.053 41.545 162.753 41.855C162.463 42.155 162.188 42.44 161.928 42.71ZM168.25 39.2H171.205V40.37H168.25V43.97C168.25 44.36 168.28 44.685 168.34 44.945C168.4 45.195 168.49 45.395 168.61 45.545C168.73 45.685 168.88 45.785 169.06 45.845C169.24 45.905 169.45 45.935 169.69 45.935C170.11 45.935 170.445 45.89 170.695 45.8C170.955 45.7 171.135 45.63 171.235 45.59L171.505 46.745C171.365 46.815 171.12 46.9 170.77 47C170.42 47.11 170.02 47.165 169.57 47.165C169.04 47.165 168.6 47.1 168.25 46.97C167.91 46.83 167.635 46.625 167.425 46.355C167.215 46.085 167.065 45.755 166.975 45.365C166.895 44.965 166.855 44.505 166.855 43.985V37.025L168.25 36.785V39.2ZM174.375 47H172.98V39.2H174.375V47ZM173.67 37.79C173.42 37.79 173.205 37.71 173.025 37.55C172.855 37.38 172.77 37.155 172.77 36.875C172.77 36.595 172.855 36.375 173.025 36.215C173.205 36.045 173.42 35.96 173.67 35.96C173.92 35.96 174.13 36.045 174.3 36.215C174.48 36.375 174.57 36.595 174.57 36.875C174.57 37.155 174.48 37.38 174.3 37.55C174.13 37.71 173.92 37.79 173.67 37.79ZM176.774 39.425C177.094 39.345 177.514 39.26 178.034 39.17C178.564 39.08 179.174 39.035 179.864 39.035C180.364 39.035 180.784 39.105 181.124 39.245C181.464 39.375 181.749 39.57 181.979 39.83C182.049 39.78 182.159 39.71 182.309 39.62C182.459 39.53 182.644 39.445 182.864 39.365C183.084 39.275 183.329 39.2 183.599 39.14C183.869 39.07 184.159 39.035 184.469 39.035C185.069 39.035 185.559 39.125 185.939 39.305C186.319 39.475 186.614 39.72 186.824 40.04C187.044 40.36 187.189 40.74 187.259 41.18C187.339 41.62 187.379 42.1 187.379 42.62V47H185.984V42.92C185.984 42.46 185.959 42.065 185.909 41.735C185.869 41.405 185.784 41.13 185.654 40.91C185.534 40.69 185.364 40.53 185.144 40.43C184.934 40.32 184.659 40.265 184.319 40.265C183.849 40.265 183.459 40.33 183.149 40.46C182.849 40.58 182.644 40.69 182.534 40.79C182.614 41.05 182.674 41.335 182.714 41.645C182.754 41.955 182.774 42.28 182.774 42.62V47H181.379V42.92C181.379 42.46 181.354 42.065 181.304 41.735C181.254 41.405 181.164 41.13 181.034 40.91C180.914 40.69 180.744 40.53 180.524 40.43C180.314 40.32 180.044 40.265 179.714 40.265C179.574 40.265 179.424 40.27 179.264 40.28C179.104 40.29 178.949 40.305 178.799 40.325C178.659 40.335 178.529 40.35 178.409 40.37C178.289 40.39 178.209 40.405 178.169 40.415V47H176.774V39.425ZM189.259 43.115C189.259 42.425 189.359 41.825 189.559 41.315C189.759 40.795 190.024 40.365 190.354 40.025C190.684 39.685 191.064 39.43 191.494 39.26C191.924 39.09 192.364 39.005 192.814 39.005C193.864 39.005 194.669 39.335 195.229 39.995C195.789 40.645 196.069 41.64 196.069 42.98C196.069 43.04 196.069 43.12 196.069 43.22C196.069 43.31 196.064 43.395 196.054 43.475H190.714C190.774 44.285 191.009 44.9 191.419 45.32C191.829 45.74 192.469 45.95 193.339 45.95C193.829 45.95 194.239 45.91 194.569 45.83C194.909 45.74 195.164 45.655 195.334 45.575L195.529 46.745C195.359 46.835 195.059 46.93 194.629 47.03C194.209 47.13 193.729 47.18 193.189 47.18C192.509 47.18 191.919 47.08 191.419 46.88C190.929 46.67 190.524 46.385 190.204 46.025C189.884 45.665 189.644 45.24 189.484 44.75C189.334 44.25 189.259 43.705 189.259 43.115ZM194.614 42.35C194.624 41.72 194.464 41.205 194.134 40.805C193.814 40.395 193.369 40.19 192.799 40.19C192.479 40.19 192.194 40.255 191.944 40.385C191.704 40.505 191.499 40.665 191.329 40.865C191.159 41.065 191.024 41.295 190.924 41.555C190.834 41.815 190.774 42.08 190.744 42.35H194.614ZM200.953 39.035C201.073 39.035 201.208 39.045 201.358 39.065C201.518 39.075 201.673 39.095 201.823 39.125C201.973 39.145 202.108 39.17 202.228 39.2C202.358 39.22 202.453 39.24 202.513 39.26L202.273 40.475C202.163 40.435 201.978 40.39 201.718 40.34C201.468 40.28 201.143 40.25 200.743 40.25C200.483 40.25 200.223 40.28 199.963 40.34C199.713 40.39 199.548 40.425 199.468 40.445V47H198.073V39.53C198.403 39.41 198.813 39.3 199.303 39.2C199.793 39.09 200.343 39.035 200.953 39.035Z" fill="white"/>
</svg>
